HIERARCHY
ROOT joint_Root
{
	OFFSET 0.0 0.0 0.0
	CHANNELS 6 Xposition Yposition Zposition Zrotation Xrotation Yrotation 
	JOINT Hips
	{
		OFFSET -0.726466 93.3139 -2.00062
		CHANNELS 6 Xposition Yposition Zposition Zrotation Xrotation Yrotation 
		JOINT Spine
		{
			OFFSET 15.7357 0.0 0.0
			CHANNELS 6 Xposition Yposition Zposition Zrotation Xrotation Yrotation 
			JOINT Chest
			{
				OFFSET 8.98455 -0.406207 0.0
				CHANNELS 6 Xposition Yposition Zposition Zrotation Xrotation Yrotation 
				JOINT Neck
				{
					OFFSET 16.3773 0.0 0.0
					CHANNELS 6 Xposition Yposition Zposition Zrotation Xrotation Yrotation 
					JOINT Head
					{
						OFFSET 6.45672 0.0 0.0
						CHANNELS 6 Xposition Yposition Zposition Zrotation Xrotation Yrotation 
						End Site
						{
							OFFSET 0.0 0.0 0.0
						}
					}
				}
				JOINT Shoulder_L
				{
					OFFSET 12.9942 -0.242716 4.98039
					CHANNELS 6 Xposition Yposition Zposition Zrotation Xrotation Yrotation 
					JOINT UpperArm_L
					{
						OFFSET 5.34809 0.0 0.0
						CHANNELS 6 Xposition Yposition Zposition Zrotation Xrotation Yrotation 
						JOINT LowerArm_L
						{
							OFFSET 24.3286 1.87007e-05 0.0
							CHANNELS 6 Xposition Yposition Zposition Zrotation Xrotation Yrotation 
							JOINT Hand_L
							{
								OFFSET 22.2916 0.0 0.0
								CHANNELS 6 Xposition Yposition Zposition Zrotation Xrotation Yrotation 
								End Site
								{
									OFFSET 0.0 0.0 0.0
								}
							}
						}
					}
				}
				JOINT Shoulder_R
				{
					OFFSET 12.9945 -0.242716 -4.98039
					CHANNELS 6 Xposition Yposition Zposition Zrotation Xrotation Yrotation 
					JOINT UpperArm_R
					{
						OFFSET -5.34813 0.0 0.0
						CHANNELS 6 Xposition Yposition Zposition Zrotation Xrotation Yrotation 
						JOINT LowerArm_R
						{
							OFFSET -24.3289 0.000322201 0.0
							CHANNELS 6 Xposition Yposition Zposition Zrotation Xrotation Yrotation 
							JOINT Hand_R
							{
								OFFSET -22.2915 -0.000108084 0.0
								CHANNELS 6 Xposition Yposition Zposition Zrotation Xrotation Yrotation 
								End Site
								{
									OFFSET 0.0 0.0 0.0
								}
							}
						}
					}
				}
			}
		}
		JOINT UpperLeg_L
		{
			OFFSET -2.19248 -6.46944 0.0
			CHANNELS 6 Xposition Yposition Zposition Zrotation Xrotation Yrotation 
			JOINT LowerLeg_L
			{
				OFFSET 39.0811 0.0 -1.23785e-05
				CHANNELS 6 Xposition Yposition Zposition Zrotation Xrotation Yrotation 
				JOINT Foot_L
				{
					OFFSET 40.9854 0.0 -1.26872e-05
					CHANNELS 6 Xposition Yposition Zposition Zrotation Xrotation Yrotation 
					JOINT Toes_L
					{
						OFFSET 11.7543 0.0 0.0
						CHANNELS 6 Xposition Yposition Zposition Zrotation Xrotation Yrotation 
						End Site
						{
							OFFSET 0.0 0.0 0.0
						}
					}
				}
			}
		}
		JOINT UpperLeg_R
		{
			OFFSET -2.19251 6.46944 0.0
			CHANNELS 6 Xposition Yposition Zposition Zrotation Xrotation Yrotation 
			JOINT LowerLeg_R
			{
				OFFSET -39.0811 -0.00228153 -0.0401928
				CHANNELS 6 Xposition Yposition Zposition Zrotation Xrotation Yrotation 
				JOINT Foot_R
				{
					OFFSET -40.9854 0.0 0.0
					CHANNELS 6 Xposition Yposition Zposition Zrotation Xrotation Yrotation 
					JOINT Toes_R
					{
						OFFSET -11.7543 0.0 0.0
						CHANNELS 6 Xposition Yposition Zposition Zrotation Xrotation Yrotation 
						End Site
						{
							OFFSET 0.0 0.0 0.0
						}
					}
				}
			}
		}
	}
}
MOTION
Frames:	8
Frame Time:	0.0333333
0.000000 0.000000 0.000000 0.000000 0.000000 -0.000000 -0.774707 92.184100 0.570301 87.916000 -2.574360 3.803250 15.735700 0.000005 -0.000001 88.457500 85.190400 -88.159700 8.984550 -0.406207 -0.000000 1.850430 -0.274135 0.599511 16.377300 -0.000001 -0.000001 3.313020 -2.216960 0.303435 6.456720 -0.000001 -0.000000 -0.139334 -1.571150 0.641282 12.994200 -0.242716 4.980390 -90.120400 0.389934 -72.836300 5.348090 -0.000007 -0.000001 -67.822900 37.224900 -14.924400 24.328600 0.000019 0.000005 0.972412 2.205610 -23.797000 22.291600 -0.000001 0.000005 3.289470 5.452630 -4.730720 12.994500 -0.242716 -4.980390 87.690900 7.079190 -71.882600 -5.348130 -0.000001 -0.000004 -65.494900 40.084500 -15.341500 -24.328900 0.000322 -0.000009 2.143170 7.099040 -16.854600 -22.291500 -0.000108 -0.000004 9.411050 5.408860 -3.227640 -2.192480 -6.469440 -0.000000 -175.308000 -6.937070 -1.642830 39.081100 -0.000007 -0.000012 -0.117718 0.279875 22.812100 40.985400 -0.000006 -0.000013 -0.578803 2.162840 -67.437900 11.754300 -0.000000 0.000003 -0.000053 -0.000596 -16.600700 -2.192510 6.469440 -0.000001 179.839000 11.950900 179.998000 -39.081100 -0.002282 -0.040193 -0.017458 0.057333 19.922200 -40.985400 0.000008 0.000006 4.178410 7.640030 -66.723100 -11.754300 -0.000006 -0.000006 -0.007730 -0.085815 -20.067300
0.000000 0.000000 0.000000 0.000000 0.000000 -0.000000 -0.753488 92.187400 0.556075 87.913200 -2.633780 3.817500 15.735700 0.000005 -0.000001 88.717300 85.213400 -88.374600 8.984550 -0.406207 -0.000000 1.805570 -0.231986 0.688372 16.377300 -0.000001 -0.000001 3.310350 -2.196500 0.399594 6.456720 -0.000001 -0.000000 -0.121048 -1.529180 0.518197 12.994200 -0.242716 4.980390 -90.191100 0.614545 -72.725400 5.348090 -0.000007 -0.000001 -67.315300 36.452000 -15.298800 24.328600 0.000019 0.000005 1.359110 2.863080 -25.399800 22.291600 -0.000001 0.000005 2.328530 5.436880 -4.175260 12.994500 -0.242716 -4.980390 87.695000 7.043950 -71.828500 -5.348130 -0.000001 -0.000004 -65.509900 39.966300 -15.267200 -24.328900 0.000322 -0.000009 2.100280 6.987340 -16.784100 -22.291500 -0.000108 -0.000004 9.514890 5.408110 -3.202720 -2.192480 -6.469440 -0.000000 -175.314000 -6.963700 -1.613450 39.081100 -0.000007 -0.000012 -0.118208 0.281320 22.791700 40.985400 -0.000006 -0.000013 -0.567801 2.154450 -67.430400 11.754300 -0.000000 0.000003 -0.000053 -0.000595 -16.600600 -2.192510 6.469440 -0.000001 179.829000 11.919000 179.994000 -39.081100 -0.002282 -0.040193 -0.017649 0.057881 19.915500 -40.985400 0.000008 0.000006 4.156660 7.658420 -66.694100 -11.754300 -0.000006 -0.000006 -0.007307 -0.082280 -19.922900
0.000000 0.000000 0.000000 0.000000 0.000000 -0.000000 -0.739757 92.179200 0.534632 87.889800 -2.572980 3.836560 15.735700 0.000005 -0.000001 89.028500 85.235400 -88.612900 8.984550 -0.406207 -0.000000 1.762650 -0.183235 0.833259 16.377300 -0.000001 -0.000001 3.261160 -2.185460 0.538431 6.456720 -0.000001 -0.000000 -0.019172 -1.475000 0.333386 12.994200 -0.242716 4.980390 -90.268200 0.860939 -72.696700 5.348090 -0.000007 -0.000001 -66.201700 35.096800 -16.341000 24.328600 0.000019 0.000005 1.642860 3.035890 -28.443100 22.291600 -0.000001 0.000005 2.964300 5.436700 -4.168340 12.994500 -0.242716 -4.980390 87.733300 6.933340 -71.845500 -5.348130 -0.000001 -0.000004 -65.680400 39.612400 -15.089200 -24.328900 0.000322 -0.000009 2.121940 7.090480 -16.715900 -22.291500 -0.000108 -0.000004 9.504240 5.408450 -3.214120 -2.192480 -6.469440 -0.000000 -175.305000 -6.869890 -1.677680 39.081100 -0.000007 -0.000012 -0.120674 0.285716 22.897200 40.985400 -0.000006 -0.000013 -0.565631 2.119300 -67.458500 11.754300 -0.000000 0.000003 -0.000054 -0.000608 -16.601100 -2.192510 6.469440 -0.000001 179.826000 11.970100 179.987000 -39.081100 -0.002282 -0.040193 -0.019029 0.061543 19.959400 -40.985400 0.000008 0.000006 4.117690 7.686900 -66.704600 -11.754300 -0.000006 -0.000006 -0.007536 -0.084199 -20.001300
0.000000 0.000000 0.000000 0.000000 0.000000 -0.000000 -0.718263 92.184300 0.513431 87.913400 -2.390950 3.912110 15.735700 0.000005 -0.000001 89.506100 85.254000 -89.012900 8.984550 -0.406207 -0.000000 1.726280 -0.107755 0.987081 16.377300 -0.000001 -0.000001 3.230850 -2.190030 0.588830 6.456720 -0.000001 -0.000000 0.157381 -1.495380 0.164249 12.994200 -0.242716 4.980390 -90.369500 1.185120 -72.682600 5.348090 -0.000007 -0.000001 -64.091800 32.857700 -18.422800 24.328600 0.000019 0.000005 2.093010 3.134650 -33.740700 22.291600 -0.000001 0.000005 4.483800 5.455970 -4.846390 12.994500 -0.242716 -4.980390 87.777500 6.798140 -71.847700 -5.348130 -0.000001 -0.000004 -65.828400 39.380300 -14.898100 -24.328900 0.000322 -0.000009 2.110980 7.103330 -16.606000 -22.291500 -0.000108 -0.000004 9.536770 5.405860 -3.128600 -2.192480 -6.469440 -0.000000 -175.359000 -6.636720 -1.637290 39.081100 -0.000007 -0.000012 -0.119795 0.283950 22.874400 40.985400 -0.000006 -0.000013 -0.560360 2.071440 -67.419500 11.754300 -0.000000 0.000003 -0.000052 -0.000586 -16.600300 -2.192510 6.469440 -0.000001 179.763000 12.122500 -179.926000 -39.081100 -0.002282 -0.040193 -0.020540 0.065818 19.927100 -40.985400 0.000008 0.000006 4.027740 7.670570 -66.667700 -11.754300 -0.000006 -0.000006 -0.007530 -0.084153 -19.999400
0.000000 0.000000 0.000000 0.000000 0.000000 -0.000000 -0.717570 92.173000 0.465313 87.965100 -1.993590 4.065440 15.735700 0.000005 -0.000001 89.868800 85.255900 -89.328500 8.984550 -0.406207 -0.000000 1.722540 -0.050200 1.080260 16.377300 -0.000001 -0.000001 3.277090 -2.241710 0.633801 6.456720 -0.000001 -0.000000 0.308676 -1.572490 0.188149 12.994200 -0.242716 4.980390 -90.451800 1.450780 -72.702300 5.348090 -0.000007 -0.000001 -61.098200 29.548300 -21.493000 24.328600 0.000019 0.000005 3.701890 4.011200 -42.744900 22.291600 -0.000001 0.000005 7.497580 5.495280 -6.304330 12.994500 -0.242716 -4.980390 87.786900 6.767700 -71.844000 -5.348130 -0.000001 -0.000004 -65.930800 39.247600 -14.697300 -24.328900 0.000322 -0.000009 2.120240 7.224950 -16.410700 -22.291500 -0.000108 -0.000004 9.508620 5.404880 -3.096430 -2.192480 -6.469440 -0.000000 -175.401000 -6.481620 -1.628260 39.081100 -0.000007 -0.000012 -0.118850 0.280279 22.979000 40.985400 -0.000006 -0.000013 -0.504545 2.274680 -67.406800 11.754300 -0.000000 0.000003 -0.000054 -0.000600 -16.600800 -2.192510 6.469440 -0.000001 179.658000 12.319700 -179.814000 -39.081100 -0.002282 -0.040193 -0.024681 0.076833 20.024400 -40.985400 0.000008 0.000006 3.874000 7.521050 -66.693900 -11.754300 -0.000006 -0.000006 -0.007609 -0.084807 -20.026100
0.000000 0.000000 0.000000 0.000000 0.000000 -0.000000 -0.722589 92.167700 0.416804 88.041300 -1.555240 4.229460 15.735700 0.000005 -0.000001 90.202700 85.246700 -89.638100 8.984550 -0.406207 -0.000000 1.740750 0.003932 1.128080 16.377300 -0.000001 -0.000001 3.360730 -2.335630 0.644197 6.456720 -0.000001 -0.000000 0.439397 -1.745990 0.373879 12.994200 -0.242716 4.980390 -90.397400 1.273600 -72.667400 5.348090 -0.000007 -0.000001 -58.048700 25.235300 -25.771400 24.328600 0.000019 0.000005 5.269100 3.781770 -54.427300 22.291600 -0.000001 0.000005 12.222200 5.544240 -8.380920 12.994500 -0.242716 -4.980390 87.787500 6.761440 -71.833200 -5.348130 -0.000001 -0.000004 -65.902000 39.281500 -14.678600 -24.328900 0.000322 -0.000009 2.114920 7.359950 -16.088700 -22.291500 -0.000108 -0.000004 9.524350 5.408550 -3.217330 -2.192480 -6.469440 -0.000000 -175.452000 -6.314330 -1.588390 39.081100 -0.000007 -0.000012 -0.117222 0.275834 23.024200 40.985400 -0.000006 -0.000013 -0.439582 2.571670 -67.357500 11.754300 -0.000000 0.000003 -0.000047 -0.000538 -16.598500 -2.192510 6.469440 -0.000001 179.540000 12.530300 -179.688000 -39.081100 -0.002282 -0.040193 -0.028721 0.087556 20.100500 -40.985400 0.000008 0.000006 3.706580 7.332210 -66.700400 -11.754300 -0.000006 -0.000006 -0.007565 -0.084442 -20.011200
0.000000 0.000000 0.000000 0.000000 0.000000 -0.000000 -0.744107 92.166200 0.365269 88.088200 -1.096960 4.351950 15.735700 0.000005 -0.000001 90.551800 85.279700 -89.957200 8.984550 -0.406207 -0.000000 1.674040 0.059273 1.187260 16.377300 -0.000001 -0.000001 3.577700 -2.441410 0.694945 6.456720 -0.000001 -0.000000 0.621464 -1.987220 0.649573 12.994200 -0.242716 4.980390 -90.268400 0.853237 -72.538200 5.348090 -0.000007 -0.000001 -55.626900 19.525500 -31.642100 24.328600 0.000019 0.000005 5.878780 2.605450 -66.180300 22.291600 -0.000001 0.000005 16.495200 5.579380 -10.142200 12.994500 -0.242716 -4.980390 87.773900 6.792530 -71.806600 -5.348130 -0.000001 -0.000004 -65.826800 39.326800 -14.635000 -24.328900 0.000322 -0.000009 2.095960 7.408570 -15.852800 -22.291500 -0.000108 -0.000004 9.531330 5.407010 -3.166490 -2.192480 -6.469440 -0.000000 -175.461000 -6.149880 -1.583400 39.081100 -0.000007 -0.000012 -0.116461 0.273576 23.059500 40.985400 -0.000006 -0.000013 -0.392834 2.868570 -67.302700 11.754300 -0.000000 0.000003 -0.000048 -0.000546 -16.598800 -2.192510 6.469440 -0.000001 179.485000 12.760000 -179.588000 -39.081100 -0.002282 -0.040193 -0.028840 0.087674 20.144400 -40.985400 0.000008 0.000006 3.660540 7.122330 -66.711000 -11.754300 -0.000006 -0.000006 -0.007494 -0.083854 -19.987200
0.000000 0.000000 0.000000 0.000000 0.000000 -0.000000 -0.766762 92.165600 0.324021 88.125500 -0.677877 4.424920 15.735700 0.000005 -0.000001 90.427400 85.368700 -89.796200 8.984550 -0.406207 -0.000000 1.496420 0.034525 1.260750 16.377300 -0.000001 -0.000001 3.874650 -2.518660 0.676577 6.456720 -0.000001 -0.000000 1.032130 -2.107620 0.986773 12.994200 -0.242716 4.980390 -90.029300 0.093822 -72.675100 5.348090 -0.000007 -0.000001 -55.581600 12.142700 -38.451800 24.328600 0.000019 0.000005 6.432400 1.653300 -75.644100 22.291600 -0.000001 0.000005 19.822100 5.600400 -11.341700 12.994500 -0.242716 -4.980390 87.746700 6.867840 -71.786200 -5.348130 -0.000001 -0.000004 -65.693100 39.360900 -14.657400 -24.328900 0.000322 -0.000009 2.096290 7.560770 -15.553500 -22.291500 -0.000108 -0.000004 9.597880 5.407500 -3.182930 -2.192480 -6.469440 -0.000000 -175.478000 -5.973850 -1.624610 39.081100 -0.000007 -0.000012 -0.117209 0.274856 23.095300 40.985400 -0.000006 -0.000013 -0.352806 3.105420 -67.250600 11.754300 -0.000000 0.000003 -0.000050 -0.000570 -16.599700 -2.192510 6.469440 -0.000001 179.436000 13.069600 -179.524000 -39.081100 -0.002282 -0.040193 -0.028670 0.087033 20.182200 -40.985400 0.000008 0.000006 3.703880 6.984220 -66.742100 -11.754300 -0.000006 -0.000006 -0.007556 -0.084366 -20.008100
